<svg width="50" height="50" viewBox="0 0 50 50" fill="none" xmlns="http://www.w3.org/2000/svg">
<circle cx="25" cy="25" r="25" fill="#E8F5FF"/>
<path d="M30.5493 16.9844C28.6933 17.2723 26.7734 17.4324 24.8533 17.4324C22.9331 17.4324 21.0133 17.2723 19.1573 16.9844C15.6693 19.3844 13.3333 23.8964 13.3333 29.1124C13.3333 36.8244 18.4853 39.4164 24.8533 39.4164C31.2213 39.4164 36.3733 36.8244 36.3733 29.1124C36.3733 23.8963 34.0371 19.3844 30.5493 16.9844ZM25.9734 33.4644V34.6483C25.9734 34.9043 25.7814 35.0963 25.5254 35.0963H24.2133C23.9573 35.0963 23.7653 34.9043 23.7653 34.6483V33.4963C22.4213 33.3363 21.3334 32.2483 21.2053 30.8722C21.2053 30.7443 21.2372 30.6162 21.3332 30.5202C21.4292 30.4242 21.5573 30.3601 21.6852 30.3601H23.0292C23.2533 30.3601 23.4131 30.5202 23.4772 30.7122C23.5412 31.0322 23.8292 31.288 24.1812 31.288H25.3332C25.9412 31.288 26.4533 30.8401 26.5171 30.2961C26.549 29.976 26.4531 29.6562 26.2292 29.432C26.0051 29.2079 25.7171 29.08 25.3972 29.08H24.5332C22.7412 29.08 21.2053 27.768 21.0452 26.072C20.8852 24.3119 22.0693 22.776 23.7653 22.4559V21.3039C23.7653 21.0479 23.9573 20.8559 24.2133 20.8559H25.5254C25.7814 20.8559 25.9734 21.0479 25.9734 21.3039V22.4559C27.3493 22.616 28.4053 23.7039 28.5334 25.08C28.5334 25.2079 28.5015 25.3361 28.4055 25.432C28.3095 25.528 28.1814 25.5921 28.0535 25.5921H26.7095C26.4854 25.5921 26.2935 25.432 26.2615 25.2401C26.1975 24.92 25.9095 24.6642 25.5575 24.6642H24.4055C23.7975 24.6642 23.2854 25.1122 23.2216 25.6561C23.1897 25.9762 23.2857 26.2961 23.5095 26.5202C23.7336 26.7443 24.0216 26.9041 24.3415 26.9041H25.3334C26.2613 26.9041 27.1894 27.3202 27.8294 27.9921C28.4694 28.6961 28.7895 29.624 28.6935 30.584C28.5654 31.9604 27.4453 33.1443 25.9734 33.4644V33.4644Z" fill="#248CD8"/>
<path d="M19.989 14.7763C21.493 15.0004 23.125 15.1283 24.8531 15.1283C26.581 15.1283 28.2132 15.0004 29.7172 14.7763L30.933 10.4884C31.189 9.59238 30.3571 8.79238 29.4609 9.04843C26.453 10.0083 23.2529 10.0083 20.2449 9.08035C19.3489 8.7924 18.517 9.62432 18.7728 10.5203L19.989 14.7763Z" fill="#248CD8"/>
</svg>
