<svg width="50" height="50" viewBox="0 0 50 50" fill="none" xmlns="http://www.w3.org/2000/svg">
<circle cx="25" cy="25" r="25" fill="#E8F5FF"/>
<path fill-rule="evenodd" clip-rule="evenodd" d="M18.2582 8.33347C17.8747 8.33347 17.5258 8.6824 17.5258 9.06581V11.6292H15.6948C15.3114 11.6292 14.9625 11.9781 14.9625 12.3615V15.2912H12.3991C12.0134 15.2876 11.6706 15.6424 11.6668 16.0235V39.8268C11.6645 40.2117 12.0096 40.563 12.3991 40.5591H31.4417C31.8312 40.5627 32.1763 40.2117 32.174 39.8268V36.8971H34.3714C34.7609 36.9006 35.1175 36.5497 35.1152 36.1647L35.1037 33.6014H37.3011C37.6845 33.6014 38.0334 33.2524 38.0334 32.869V15.6575C38.0334 15.3474 37.9243 15.1461 37.7703 14.9478L32.8379 8.76814C32.7023 8.60874 32.3242 8.33567 31.808 8.33337L18.2582 8.33347ZM18.9905 9.79815H31.4414V13.4602L30.1254 11.9955C29.9652 11.8026 29.7933 11.6292 29.6104 11.6292H18.9905V9.79815ZM32.9062 11.2628L35.8359 14.9249H32.9062V11.2628ZM16.4271 13.0938H28.878V17.8546L27.047 15.6572C26.8375 15.3982 26.5757 15.2909 26.3146 15.2909H16.4271V13.0935L16.4271 13.0938ZM30.3428 14.5585L32.9062 18.2206H30.3428V14.5585ZM33.6385 16.3895H36.5682V32.1363H35.1035V18.953C35.1035 18.5867 35.0463 18.2548 34.7372 17.8543L33.6385 16.3895ZM27.0468 17.8542L29.9765 21.8826H27.0468V17.8542ZM15.9921 18.9529L15.9923 18.9532C16.0151 18.9521 16.0381 18.9521 16.061 18.9532H20.4554C20.8598 18.9532 21.1878 19.2811 21.1878 19.6858V24.0801C21.1878 24.4845 20.8598 24.8125 20.4554 24.8125H16.061C15.6564 24.8125 15.3287 24.4845 15.3284 24.0801V19.6858C15.3269 19.3064 15.6148 18.9889 15.9923 18.9532L15.9921 18.9529ZM30.3427 19.6852H33.6384V35.432H32.1737V22.2487C32.1737 22.0147 31.9285 21.69 31.8074 21.5163L30.3427 19.6852ZM15.9921 26.6431L15.9923 26.6434C16.0151 26.6423 16.0381 26.6423 16.061 26.6434H28.1458H28.1455C28.3407 26.6406 28.5287 26.7164 28.6676 26.8541C28.8066 26.9918 28.8848 27.1798 28.8848 27.3757C28.8848 27.5719 28.8066 27.7597 28.6676 27.8973C28.5287 28.035 28.3407 28.1109 28.1455 28.1081H16.0608H16.061C15.6585 28.1272 15.3169 27.8148 15.2978 27.4102C15.2789 27.0058 15.5897 26.6625 15.9923 26.6433L15.9921 26.6431ZM15.9921 29.5728L15.9923 29.5731C16.0151 29.572 16.0381 29.572 16.061 29.5731H28.1458H28.1455C28.3407 29.5702 28.5287 29.6461 28.6676 29.7838C28.8066 29.9215 28.8848 30.1095 28.8848 30.3054C28.8848 30.5016 28.8066 30.6893 28.6676 30.827C28.5287 30.9647 28.3407 31.0406 28.1455 31.0378H16.0608H16.061C15.6585 31.0569 15.3169 30.7443 15.2978 30.3399C15.2789 29.9355 15.5897 29.5922 15.9923 29.573L15.9921 29.5728ZM15.9921 32.5025L15.9923 32.5027C16.0151 32.5015 16.0381 32.5015 16.061 32.5027H28.1458H28.1455C28.3407 32.4999 28.5287 32.5758 28.6676 32.7135C28.8066 32.8512 28.8848 33.0389 28.8848 33.2351C28.8848 33.431 28.8066 33.619 28.6676 33.7567C28.5287 33.8944 28.3407 33.9703 28.1455 33.9675H16.0608H16.061C15.6585 33.9864 15.3169 33.674 15.2978 33.2696C15.2789 32.8652 15.5897 32.5216 15.9923 32.5027L15.9921 32.5025ZM15.9921 35.4322H15.9923C16.0151 35.4312 16.0381 35.4312 16.061 35.4322H28.1458H28.1455C28.3407 35.4296 28.5287 35.5055 28.6676 35.6432C28.8066 35.7809 28.8848 35.9686 28.8848 36.1648C28.8848 36.3607 28.8066 36.5487 28.6676 36.6864C28.5287 36.8238 28.3407 36.9 28.1455 36.8972H16.0608H16.061C15.6585 36.9161 15.3169 36.6037 15.2978 36.1993C15.2789 35.7947 15.5897 35.4513 15.9923 35.4322L15.9921 35.4322Z" fill="#248CD8"/>
</svg>
