<svg width="10" height="18" viewBox="0 0 10 18" fill="none" xmlns="http://www.w3.org/2000/svg">
<path d="M9.53033 1.53033C9.82322 1.23744 9.82322 0.762563 9.53033 0.46967C9.23744 0.176777 8.76256 0.176777 8.46967 0.46967L9.53033 1.53033ZM1 9L0.46967 8.46967C0.176777 8.76256 0.176777 9.23744 0.46967 9.53033L1 9ZM8.46967 17.5303C8.76256 17.8232 9.23744 17.8232 9.53033 17.5303C9.82322 17.2374 9.82322 16.7626 9.53033 16.4697L8.46967 17.5303ZM8.46967 0.46967L0.46967 8.46967L1.53033 9.53033L9.53033 1.53033L8.46967 0.46967ZM0.46967 9.53033L8.46967 17.5303L9.53033 16.4697L1.53033 8.46967L0.46967 9.53033Z" fill="url(#paint0_linear_413_6730)"/>
<defs>
<linearGradient id="paint0_linear_413_6730" x1="9" y1="1" x2="-3.8" y2="7.4" gradientUnits="userSpaceOnUse">
<stop stop-color="#14ADD6"/>
<stop offset="1" stop-color="#384295"/>
</linearGradient>
</defs>
</svg>
