<svg width="50" height="50" viewBox="0 0 50 50" fill="none" xmlns="http://www.w3.org/2000/svg">
<circle cx="25" cy="25" r="25" fill="#ECFFF2"/>
<path d="M30.5494 16.9844C28.6934 17.2723 26.7735 17.4324 24.8534 17.4324C22.9333 17.4324 21.0134 17.2723 19.1574 16.9844C15.6694 19.3844 13.3334 23.8964 13.3334 29.1124C13.3334 36.8244 18.4854 39.4164 24.8534 39.4164C31.2214 39.4164 36.3734 36.8244 36.3734 29.1124C36.3734 23.8963 34.0372 19.3844 30.5494 16.9844ZM25.9735 33.4644V34.6483C25.9735 34.9043 25.7815 35.0963 25.5255 35.0963H24.2134C23.9574 35.0963 23.7655 34.9043 23.7655 34.6483V33.4963C22.4215 33.3363 21.3335 32.2483 21.2054 30.8722C21.2054 30.7443 21.2373 30.6162 21.3333 30.5202C21.4293 30.4242 21.5574 30.3601 21.6853 30.3601H23.0293C23.2534 30.3601 23.4132 30.5202 23.4773 30.7122C23.5414 31.0322 23.8293 31.288 24.1813 31.288H25.3333C25.9414 31.288 26.4534 30.8401 26.5172 30.2961C26.5492 29.976 26.4532 29.6562 26.2293 29.432C26.0052 29.2079 25.7172 29.08 25.3974 29.08H24.5333C22.7414 29.08 21.2054 27.768 21.0454 26.072C20.8853 24.3119 22.0695 22.776 23.7655 22.4559V21.3039C23.7655 21.0479 23.9574 20.8559 24.2135 20.8559H25.5255C25.7815 20.8559 25.9735 21.0479 25.9735 21.3039V22.4559C27.3494 22.616 28.4054 23.7039 28.5336 25.08C28.5336 25.2079 28.5016 25.3361 28.4057 25.432C28.3097 25.528 28.1815 25.5921 28.0536 25.5921H26.7096C26.4855 25.5921 26.2936 25.432 26.2617 25.2401C26.1976 24.92 25.9096 24.6642 25.5577 24.6642H24.4057C23.7976 24.6642 23.2855 25.1122 23.2217 25.6561C23.1898 25.9762 23.2858 26.2961 23.5097 26.5202C23.7338 26.7443 24.0217 26.9041 24.3416 26.9041H25.3335C26.2614 26.9041 27.1895 27.3202 27.8295 27.9921C28.4695 28.6961 28.7896 29.624 28.6936 30.584C28.5655 31.9604 27.4454 33.1443 25.9735 33.4644V33.4644Z" fill="#10A242"/>
<path d="M19.9893 14.7763C21.4933 15.0004 23.1252 15.1283 24.8533 15.1283C26.5812 15.1283 28.2134 15.0004 29.7174 14.7763L30.9332 10.4884C31.1893 9.59238 30.3573 8.79238 29.4611 9.04843C26.4533 10.0083 23.2531 10.0083 20.2451 9.08035C19.3491 8.7924 18.5172 9.62432 18.773 10.5203L19.9893 14.7763Z" fill="#10A242"/>
</svg>
