<svg width="50" height="50" viewBox="0 0 50 50" fill="none" xmlns="http://www.w3.org/2000/svg">
<circle cx="25" cy="25" r="25" fill="#FFF4E8"/>
<path d="M41.5012 32.2988V35.0988H10V32.1356C9.99844 31.5097 10.2766 30.916 10.7585 30.5164C12.4582 29.1448 14.2866 27.9403 16.2176 26.9198C16.3424 27.2111 17.552 29.9919 18.3232 31.1662V31.166C18.3339 31.1881 18.3562 31.2021 18.3808 31.2021C18.4053 31.2021 18.4277 31.1881 18.4384 31.166C18.5951 30.6956 19.2 29.0635 20.1183 29.1756H20.1185C20.1473 29.1843 20.1781 29.1704 20.1908 29.1432C20.2035 29.1162 20.1946 29.0836 20.1696 29.0669C19.4752 28.5133 17.7151 27.0892 17.0464 26.2957V24.3789C16.7486 23.8727 16.5457 23.3164 16.448 22.7372C16.2176 22.718 15.9167 22.3979 15.5904 21.2493C15.1712 19.7709 15.5647 19.4765 15.9455 19.4796C15.7439 18.6155 15.2319 15.614 17.4656 14.2508C17.1971 14.024 17.0415 13.6905 17.0399 13.339C17.0399 13.339 19.6 13.6269 20.8192 13.3742C22.0384 13.1213 23.3792 14.0878 23.5872 15.0191C23.5872 15.0191 26.0863 15.0191 25.117 19.4832C25.5074 19.4671 25.933 19.7361 25.5009 21.2528C25.1808 22.4017 24.8609 22.7249 24.6433 22.7408V22.7405C24.546 23.3198 24.3431 23.876 24.0448 24.3821V26.283C23.3727 27.0765 21.616 28.5037 20.9185 29.0542C20.8935 29.0709 20.8843 29.1033 20.8973 29.1305C20.91 29.1578 20.9408 29.1716 20.9696 29.1629C21.8879 29.0508 22.4928 30.6796 22.6495 31.1533C22.6602 31.1754 22.6827 31.1895 22.7071 31.1895C22.7316 31.1895 22.7542 31.1754 22.7649 31.1533C23.5361 29.9789 24.7457 27.1981 24.8705 26.9069C26.17 27.5991 27.4259 28.3705 28.6303 29.2174C29.0361 29.0821 29.4316 28.9187 29.8145 28.7277L29.8848 28.6862C30.0846 28.5569 30.2049 28.3353 30.2049 28.0973V26.9038C27.0464 26.9326 26.1154 25.579 26.1154 25.579C26.1154 25.579 27.9203 25.5502 27.8083 20.779C27.696 16.0078 29.8752 15.2366 30.6944 14.939C33.0784 14.0334 34.2752 15.4733 34.2752 15.4733C37.04 15.2173 37.7953 18.2381 37.4752 21.675C37.1551 25.1119 39.0241 25.6494 39.0241 25.6494C37.7281 26.9742 34.9922 26.8909 34.9922 26.8909V28.123H34.9919C34.9919 28.361 35.1122 28.5826 35.312 28.7119L35.3953 28.763C36.3553 29.2655 38.3265 29.7871 38.3649 29.8063C39.01 29.9813 39.637 30.2182 40.2368 30.5135C40.94 30.8485 41.4185 31.5246 41.5009 32.299L41.5012 32.2988Z" fill="#F29425"/>
</svg>
