<svg width="50" height="50" viewBox="0 0 50 50" fill="none" xmlns="http://www.w3.org/2000/svg">
<circle cx="25" cy="25" r="25" fill="#ECFFF2"/>
<path d="M14.2715 28.7783V26.9965C14.2715 26.5299 14.6491 26.1483 15.1198 26.1483H24.4515V28.7781C24.7231 28.723 25.0072 28.6931 25.2998 28.6931C25.5883 28.6931 25.8723 28.7227 26.148 28.7781L26.1483 26.1483H35.9042C36.3708 26.1483 36.7525 26.53 36.7525 26.9965V28.7781C37.0241 28.723 37.3082 28.6931 37.6008 28.6931C37.8893 28.6931 38.1733 28.7227 38.449 28.7781L38.4493 26.9965C38.4493 25.5926 37.304 24.4514 35.9042 24.4514L26.1483 24.4517V21.9065H24.4517V24.4517H15.12C13.7161 24.4517 12.5748 25.5925 12.5748 26.9968V28.7783C12.8464 28.7233 13.1305 28.6934 13.4231 28.6934C13.7116 28.6934 13.9959 28.723 14.2714 28.7783L14.2715 28.7783Z" fill="#10A242"/>
<path d="M27.7219 36.4089C27.0346 36.8924 26.199 37.1768 25.2998 37.1768C24.3962 37.1768 23.5606 36.8924 22.8736 36.4089C21.3508 36.7442 20.2098 38.1014 20.2098 39.7216V41.4181C20.2098 41.8847 20.5874 42.2663 21.0581 42.2663H29.5415C30.0081 42.2663 30.3898 41.8847 30.3898 41.4181V39.7216C30.3898 38.1013 29.2444 36.7441 27.7218 36.4089H27.7219Z" fill="#10A242"/>
<path d="M39.9042 36.4899C39.2381 36.9228 38.4493 37.1773 37.6008 37.1773C36.6634 37.1773 35.798 36.8675 35.0938 36.35C33.4058 36.5408 32.0868 37.9788 32.0868 39.7221V41.4187C32.0868 41.8853 32.4643 42.2669 32.9351 42.2669H41.4185C41.8851 42.2669 42.2667 41.8852 42.2667 41.4187V39.7221C42.2667 38.2122 41.2699 36.927 39.9042 36.49V36.4899Z" fill="#10A242"/>
<path d="M15.8454 36.4089C15.1584 36.8924 14.3226 37.1768 13.4233 37.1768C12.5197 37.1768 11.6842 36.8924 10.9972 36.4089C9.47432 36.7442 8.33337 38.1014 8.33337 39.7216V41.4181C8.33337 41.8847 8.71092 42.2663 9.18164 42.2663H17.665C18.1316 42.2663 18.5133 41.8847 18.5133 41.4181V39.7216C18.5133 38.1013 17.3683 36.7441 15.8453 36.4089H15.8454Z" fill="#10A242"/>
<path d="M27.8449 32.9352C27.8449 34.3406 26.7054 35.4801 25.2997 35.4801C23.8939 35.4801 22.7545 34.3406 22.7545 32.9352C22.7545 31.5294 23.8939 30.39 25.2997 30.39C26.7054 30.39 27.8449 31.5294 27.8449 32.9352Z" fill="#10A242"/>
<path d="M21.0581 20.2101H29.5415C30.0081 20.2101 30.3897 19.8284 30.3897 19.3619V17.6653C30.3897 16.0451 29.2444 14.6877 27.7218 14.3527C27.0344 14.8359 26.1989 15.1202 25.2997 15.1202C24.396 15.1202 23.5605 14.8359 22.8735 14.3524C21.3507 14.6874 20.2097 16.0449 20.2097 17.665V19.3616C20.2097 19.8285 20.5873 20.2101 21.058 20.2101H21.0581Z" fill="#10A242"/>
<path d="M27.8449 10.8785C27.8449 12.284 26.7054 13.4234 25.2997 13.4234C23.8939 13.4234 22.7545 12.284 22.7545 10.8785C22.7545 9.4728 23.8939 8.33337 25.2997 8.33337C26.7054 8.33337 27.8449 9.4728 27.8449 10.8785Z" fill="#10A242"/>
<path d="M40.1457 32.9352C40.1457 34.3406 39.0063 35.4801 37.6005 35.4801C36.1951 35.4801 35.0557 34.3406 35.0557 32.9352C35.0557 31.5294 36.1951 30.39 37.6005 30.39C39.0063 30.39 40.1457 31.5294 40.1457 32.9352Z" fill="#10A242"/>
<path d="M15.9683 32.9352C15.9683 34.3406 14.8289 35.4801 13.4232 35.4801C12.0177 35.4801 10.8783 34.3406 10.8783 32.9352C10.8783 31.5294 12.0177 30.39 13.4232 30.39C14.8289 30.39 15.9683 31.5294 15.9683 32.9352Z" fill="#10A242"/>
</svg>
