<svg width="24" height="24" viewBox="0 0 24 24" fill="none" xmlns="http://www.w3.org/2000/svg">
<path d="M5.93496 11.4829L5.89402 11.3877H3.05591L3.24993 11.6393L3.24978 11.6394C4.17425 12.8406 5.51943 13.6472 7.01458 13.8964L7.3915 13.9598L7.16641 13.6505H7.16657C6.67516 12.9771 6.26185 12.2499 5.93495 11.4829L5.93496 11.4829Z" fill="url(#paint0_linear_345_2173)"/>
<path d="M9.50284 11.3877H6.48828L6.59259 11.6101C6.93798 12.3428 7.36805 13.0325 7.87424 13.6649L7.99627 13.818L8.11831 13.6649C8.62445 13.0328 9.05455 12.3431 9.39915 11.6101L9.50284 11.3877Z" fill="url(#paint1_linear_345_2173)"/>
<path d="M10.0976 11.3877L10.0566 11.4829C9.72976 12.2499 9.31659 12.9771 8.82518 13.6506L8.6001 13.9599L8.97701 13.8965V13.8964C10.471 13.6448 11.8153 12.8389 12.7412 11.6398L12.9369 11.3878L10.0976 11.3877Z" fill="url(#paint2_linear_345_2173)"/>
<path d="M10.7692 8.40066C10.7333 9.16139 10.5993 9.91429 10.3708 10.6408L10.3062 10.8443H13.261L13.3055 10.7619V10.7618C13.6926 10.0374 13.9202 9.23856 13.9728 8.41884L13.9844 8.25195L10.7764 8.25211L10.7692 8.40066Z" fill="url(#paint3_linear_345_2173)"/>
<path d="M5.7783 8.41695C5.82425 9.20892 5.9808 9.99064 6.24304 10.7395L6.27959 10.8441H9.71199L9.74854 10.7395C10.0124 9.9908 10.1669 9.20828 10.2073 8.41571L10.2153 8.25195H5.76904L5.7783 8.41695Z" fill="url(#paint4_linear_345_2173)"/>
<path d="M5.62142 10.6407C5.39288 9.91411 5.25877 9.16122 5.22254 8.40049L5.21517 8.25195H2L2.01286 8.41994C2.07168 9.23777 2.29881 10.0348 2.68011 10.7608L2.72403 10.8441H5.68622L5.62142 10.6407Z" fill="url(#paint5_linear_345_2173)"/>
<path d="M5.2228 7.55983C5.25904 6.7991 5.39315 6.04604 5.62168 5.31965L5.68631 5.11621H2.72427L2.68035 5.1995C2.29904 5.92541 2.07177 6.7224 2.01311 7.54022L2.00024 7.70821L5.21541 7.70837L5.2228 7.55983Z" fill="url(#paint6_linear_345_2173)"/>
<path d="M10.2074 7.54445C10.167 6.75188 10.0125 5.96931 9.74863 5.22083L9.71208 5.11621H6.27968L6.24313 5.22083C5.98071 5.96951 5.82432 6.75124 5.77838 7.54337L5.76929 7.70838H10.2156L10.2074 7.54445Z" fill="url(#paint7_linear_345_2173)"/>
<path d="M10.3708 5.31967C10.5994 6.04606 10.7332 6.79895 10.7692 7.55984L10.7765 7.70838H13.9845L13.9729 7.54149H13.9728C13.9204 6.72178 13.6928 5.92291 13.3055 5.19856L13.261 5.11621H10.3062L10.3708 5.31967Z" fill="url(#paint8_linear_345_2173)"/>
<path d="M10.0566 4.47702L10.0976 4.57223H12.9371L12.7413 4.32033H12.7412C11.8154 3.12088 10.4712 2.31481 8.97702 2.06337L8.6001 2L8.82518 2.30931V2.30916C9.31659 2.98267 9.7299 3.71002 10.0566 4.47701L10.0566 4.47702Z" fill="url(#paint9_linear_345_2173)"/>
<path d="M6.48828 4.57303H9.50284L9.39916 4.35061C9.05455 3.61763 8.62446 2.92794 8.11831 2.29567L7.99628 2.14258L7.87424 2.29567C7.36794 2.92794 6.93784 3.61779 6.59259 4.35061L6.48828 4.57303Z" fill="url(#paint10_linear_345_2173)"/>
<path d="M5.93521 4.47717C6.26209 3.71014 6.67526 2.98282 7.16683 2.30931L7.39191 2L7.015 2.06337L7.01484 2.06352C5.51973 2.31261 4.1744 3.11931 3.25004 4.32081L3.05664 4.5724H5.89427L5.93521 4.47717Z" fill="url(#paint11_linear_345_2173)"/>
<path d="M21.7378 19.9873H19.6557L19.6176 20.1369H19.6178C19.598 20.2128 19.5878 20.2907 19.5874 20.3691C19.5874 20.7653 19.7989 21.1316 20.1422 21.3299C20.4853 21.528 20.9082 21.528 21.2515 21.3299C21.5948 21.1316 21.8061 20.7653 21.8061 20.3691C21.8059 20.2907 21.7957 20.2128 21.776 20.1369L21.7378 19.9873Z" fill="url(#paint12_linear_345_2173)"/>
<path d="M14.4773 19.9873H12.3952L12.3571 20.1369H12.3573C12.3373 20.2128 12.3271 20.2907 12.3269 20.3691C12.3269 20.7653 12.5384 21.1316 12.8815 21.3299C13.2248 21.528 13.6477 21.528 13.991 21.3299C14.3341 21.1316 14.5456 20.7653 14.5456 20.3691C14.5454 20.2907 14.5352 20.2128 14.5155 20.1369L14.4773 19.9873Z" fill="url(#paint13_linear_345_2173)"/>
<path d="M22.3698 17.0332C21.885 16.9342 21.4394 16.6961 21.0876 16.3483C20.7377 15.998 20.4992 15.5519 20.4026 15.0662L20.3709 14.9062H18.1404V19.2961H22.5298V17.065L22.3698 17.0332Z" fill="url(#paint14_linear_345_2173)"/>
<path d="M11.603 12.7266H17.4485V19.2954H11.603V12.7266Z" fill="url(#paint15_linear_345_2173)"/>
<defs>
<linearGradient id="paint0_linear_345_2173" x1="3.05591" y1="11.3877" x2="5.31322" y2="15.1927" gradientUnits="userSpaceOnUse">
<stop stop-color="#14ADD6"/>
<stop offset="1" stop-color="#384295"/>
</linearGradient>
<linearGradient id="paint1_linear_345_2173" x1="6.48828" y1="11.3877" x2="8.86324" y2="14.3336" gradientUnits="userSpaceOnUse">
<stop stop-color="#14ADD6"/>
<stop offset="1" stop-color="#384295"/>
</linearGradient>
<linearGradient id="paint2_linear_345_2173" x1="8.6001" y1="11.3877" x2="10.8573" y2="15.1934" gradientUnits="userSpaceOnUse">
<stop stop-color="#14ADD6"/>
<stop offset="1" stop-color="#384295"/>
</linearGradient>
<linearGradient id="paint3_linear_345_2173" x1="10.3062" y1="8.25195" x2="12.7475" y2="11.716" gradientUnits="userSpaceOnUse">
<stop stop-color="#14ADD6"/>
<stop offset="1" stop-color="#384295"/>
</linearGradient>
<linearGradient id="paint4_linear_345_2173" x1="5.76904" y1="8.25195" x2="8.02477" y2="12.1212" gradientUnits="userSpaceOnUse">
<stop stop-color="#14ADD6"/>
<stop offset="1" stop-color="#384295"/>
</linearGradient>
<linearGradient id="paint5_linear_345_2173" x1="2" y1="8.25195" x2="4.43937" y2="11.7209" gradientUnits="userSpaceOnUse">
<stop stop-color="#14ADD6"/>
<stop offset="1" stop-color="#384295"/>
</linearGradient>
<linearGradient id="paint6_linear_345_2173" x1="2.00024" y1="5.11621" x2="4.43965" y2="8.58506" gradientUnits="userSpaceOnUse">
<stop stop-color="#14ADD6"/>
<stop offset="1" stop-color="#384295"/>
</linearGradient>
<linearGradient id="paint7_linear_345_2173" x1="5.76929" y1="5.11621" x2="8.02503" y2="8.98546" gradientUnits="userSpaceOnUse">
<stop stop-color="#14ADD6"/>
<stop offset="1" stop-color="#384295"/>
</linearGradient>
<linearGradient id="paint8_linear_345_2173" x1="10.3062" y1="5.11621" x2="12.7473" y2="8.58026" gradientUnits="userSpaceOnUse">
<stop stop-color="#14ADD6"/>
<stop offset="1" stop-color="#384295"/>
</linearGradient>
<linearGradient id="paint9_linear_345_2173" x1="8.6001" y1="2" x2="10.8573" y2="5.80576" gradientUnits="userSpaceOnUse">
<stop stop-color="#14ADD6"/>
<stop offset="1" stop-color="#384295"/>
</linearGradient>
<linearGradient id="paint10_linear_345_2173" x1="6.48828" y1="2.14258" x2="8.86343" y2="5.08854" gradientUnits="userSpaceOnUse">
<stop stop-color="#14ADD6"/>
<stop offset="1" stop-color="#384295"/>
</linearGradient>
<linearGradient id="paint11_linear_345_2173" x1="3.05664" y1="2" x2="5.31445" y2="5.80509" gradientUnits="userSpaceOnUse">
<stop stop-color="#14ADD6"/>
<stop offset="1" stop-color="#384295"/>
</linearGradient>
<linearGradient id="paint12_linear_345_2173" x1="19.5874" y1="19.9873" x2="20.9681" y2="22.0417" gradientUnits="userSpaceOnUse">
<stop stop-color="#14ADD6"/>
<stop offset="1" stop-color="#384295"/>
</linearGradient>
<linearGradient id="paint13_linear_345_2173" x1="12.3269" y1="19.9873" x2="13.7076" y2="22.0417" gradientUnits="userSpaceOnUse">
<stop stop-color="#14ADD6"/>
<stop offset="1" stop-color="#384295"/>
</linearGradient>
<linearGradient id="paint14_linear_345_2173" x1="18.1404" y1="14.9062" x2="22.5302" y2="19.2957" gradientUnits="userSpaceOnUse">
<stop stop-color="#14ADD6"/>
<stop offset="1" stop-color="#384295"/>
</linearGradient>
<linearGradient id="paint15_linear_345_2173" x1="11.603" y1="12.7266" x2="18.1274" y2="18.5325" gradientUnits="userSpaceOnUse">
<stop stop-color="#14ADD6"/>
<stop offset="1" stop-color="#384295"/>
</linearGradient>
</defs>
</svg>
