<svg width="50" height="50" viewBox="0 0 50 50" fill="none" xmlns="http://www.w3.org/2000/svg">
<circle cx="25" cy="25" r="25" fill="#FFF1F0"/>
<path d="M20.573 17.7178C18.2645 17.7178 16.384 19.5983 16.384 21.9068C16.384 24.2201 18.2645 26.0958 20.573 26.0958C22.8815 26.0958 24.7621 24.2201 24.7621 21.9068C24.7621 19.5983 22.8815 17.7178 20.573 17.7178ZM20.6057 21.4226C21.9926 21.795 22.1695 22.6421 22.1788 22.9912C22.2021 23.6474 21.746 24.2711 21.0757 24.5084C21.0385 24.5224 20.9965 24.5271 20.9593 24.5411V25.1649H20.0284V24.5272C19.5723 24.3973 19.1069 24.0669 18.7112 23.4427L19.4838 22.8796C20.0097 23.7178 20.5682 23.6337 20.787 23.5545C21.0524 23.4614 21.257 23.2287 21.2479 23.0286C21.2433 22.8331 21.0106 22.5632 20.3823 22.3957C18.9953 22.0188 18.8185 21.1716 18.8091 20.8276C18.7859 20.1662 19.242 19.5424 19.9123 19.3051C19.9495 19.2958 19.9914 19.2864 20.0286 19.2773L20.0284 18.6487H20.9593V19.291C21.4108 19.4261 21.8808 19.7471 22.2765 20.3754L21.504 20.934C20.978 20.0962 20.4195 20.1847 20.2007 20.2591C19.9354 20.3521 19.7307 20.5849 19.7398 20.7902C19.7446 20.9853 19.9773 21.2506 20.6057 21.4227L20.6057 21.4226Z" fill="#ED3237"/>
<path d="M26.8239 28.1577C27.3637 27.6224 27.8291 27.0173 28.2108 26.3611L29.6117 26.7381L29.7792 26.3942C30.3566 25.2021 30.6964 23.936 30.7895 22.6282L30.8127 22.2419L29.407 21.865C29.4025 20.3336 29.0021 18.8442 28.248 17.5224L29.272 16.4985L29.058 16.182C28.7043 15.6468 28.2854 15.1393 27.8106 14.6648C27.3406 14.1947 26.8286 13.7758 26.2979 13.417L25.9814 13.2075L24.9575 14.2311C23.6403 13.4777 22.1461 13.0773 20.6149 13.0727L20.2378 11.667L19.856 11.6948C18.5482 11.7786 17.2774 12.1179 16.0859 12.6951L15.7414 12.8626L16.1183 14.2635C15.4621 14.6498 14.8571 15.1153 14.317 15.6553C13.7772 16.1902 13.3118 16.7957 12.9301 17.4518L11.5294 17.0755L11.3619 17.42C10.7846 18.6115 10.4449 19.8823 10.3612 21.1901L10.3334 21.5718L11.7391 21.9488C11.7436 23.4802 12.1393 24.9696 12.8981 26.2913L11.8741 27.3153L12.0836 27.6318C12.4372 28.1629 12.8609 28.6745 13.3309 29.1497C13.8057 29.6197 14.3129 30.0382 14.8482 30.3924L15.1646 30.6064L16.1886 29.5825C17.5058 30.3365 19 30.7363 20.5312 30.7415L20.9081 32.1472L21.2944 32.1233C22.6022 32.0302 23.8731 31.6905 25.0599 31.1133L25.4044 30.9458L25.0275 29.5449C25.6835 29.1632 26.2886 28.6977 26.8239 28.1577L26.8239 28.1577ZM20.5497 27.9343C17.2078 27.9343 14.4989 25.2253 14.4989 21.8835C14.4989 18.5416 17.2078 15.8327 20.5497 15.8327C23.8915 15.8327 26.6004 18.5416 26.6004 21.8835C26.6004 25.2253 23.8915 27.9343 20.5497 27.9343Z" fill="#ED3237"/>
<path d="M38.1808 33.0543C38.1808 32.626 38.1296 32.1977 38.0318 31.7836L38.7998 31.3369L38.6741 30.9743C38.4087 30.2018 37.9991 29.4938 37.4639 28.8746L37.2127 28.586L36.4354 29.0327C35.8116 28.4411 35.0623 28.0087 34.2432 27.7621V26.8777L33.8663 26.8033C33.089 26.645 32.214 26.645 31.4366 26.8033L31.0597 26.8777V27.7616C30.2406 28.0083 29.4911 28.4411 28.8675 29.0323L28.095 28.5855L27.8436 28.8737C27.3037 29.4882 26.8939 30.1961 26.6288 30.9734L26.4985 31.336L27.2711 31.7828C27.1734 32.1975 27.1221 32.6258 27.1221 33.0534C27.1221 33.4813 27.1732 33.9099 27.2711 34.3241L26.4985 34.7708L26.6288 35.1334C26.8942 35.9107 27.3037 36.6182 27.8436 37.2331L28.095 37.5213L28.8675 37.0746C29.4913 37.6661 30.2405 38.0986 31.0597 38.3452V39.2291L31.4366 39.3035C31.8229 39.3843 32.2324 39.4263 32.6513 39.4263C33.0702 39.4263 33.4798 39.3839 33.8661 39.3048L34.243 39.2304L34.2432 38.3465C35.0623 38.0998 35.8118 37.667 36.4354 37.0758L37.2127 37.5226L37.4641 37.2344C37.9994 36.6153 38.4089 35.9074 38.6743 35.1346L38.8 34.772L38.032 34.3253C38.1296 33.9108 38.1808 33.4825 38.1808 33.0542L38.1808 33.0543ZM32.6513 36.3124C30.8548 36.3124 29.3931 34.8508 29.3931 33.0543C29.3931 31.2577 30.8548 29.7961 32.6513 29.7961C34.4478 29.7961 35.9094 31.2577 35.9094 33.0543C35.9094 34.8508 34.4478 36.3124 32.6513 36.3124Z" fill="#ED3237"/>
<path d="M34.9785 23.2793V23.7448H35.9094V23.2793C35.9094 21.9948 36.9521 20.9521 38.2366 20.9521H38.702V20.0212H38.2366C36.9521 20.0212 35.9094 18.9785 35.9094 17.694V17.2285H34.9785V17.694C34.9785 18.9785 33.9358 20.0212 32.6512 20.0212H32.1858V20.9521H32.6512C33.9358 20.9521 34.9785 21.9948 34.9785 23.2793Z" fill="#ED3237"/>
</svg>
