<svg width="50" height="50" viewBox="0 0 50 50" fill="none" xmlns="http://www.w3.org/2000/svg">
<circle cx="25" cy="25" r="25" fill="#F9EFFF"/>
<path d="M30.2453 22.9223L29.1672 15.3048C29.0595 14.3706 28.269 13.6879 27.3348 13.6879H26.221C26.149 10.7056 23.7058 8.33398 20.7234 8.33398C17.741 8.33398 15.2977 10.7056 15.2258 13.6879L14.0758 13.6877C13.1417 13.6877 12.3512 14.3704 12.2434 15.3045L10.0157 31.0068C9.87205 32.1206 10.7342 33.1267 11.8481 33.1267H20.7592C21.0828 27.8805 25.1071 23.6047 30.2453 22.922V22.9223ZM20.6874 10.5977C22.4481 10.5977 23.8495 11.999 23.9572 13.7237L17.4536 13.724C17.5255 11.999 18.9627 10.5977 20.6876 10.5977L20.6874 10.5977ZM20.6874 23.102C17.8847 23.102 15.6209 20.8382 15.6209 18.0355C15.6209 17.4247 16.124 16.9217 16.7347 16.9217C17.3456 16.9217 17.8486 17.4247 17.8486 18.0355C17.8486 19.6166 19.1063 20.874 20.6871 20.874C22.232 20.874 23.5256 19.6163 23.5256 18.0355C23.5256 17.4247 24.0286 16.9217 24.6394 16.9217C25.2502 16.9217 25.7532 17.4247 25.7532 18.0355C25.7535 20.874 23.4899 23.102 20.6873 23.102H20.6874Z" fill="#A601FF"/>
<path d="M31.7185 25.043C26.9037 25.043 22.9871 28.9595 22.9871 33.7744C22.9871 38.5892 26.9036 42.5059 31.7185 42.5059C36.5335 42.5059 40.45 38.5894 40.45 33.7744C40.4502 28.9596 36.5335 25.043 31.7185 25.043ZM35.635 32.4809L31.7185 36.6129C31.503 36.8285 31.2155 36.9723 30.928 36.9723C30.6405 36.9723 30.3172 36.8646 30.1375 36.6129L27.8021 34.1335C27.3349 33.7024 27.371 32.9839 27.8021 32.5886C28.2332 32.1575 28.952 32.1933 29.3831 32.6244L30.9281 34.2413L34.0541 30.9356C34.4852 30.5045 35.1679 30.4684 35.6352 30.8997C36.0665 31.3308 36.0665 32.0136 35.6352 32.4808L35.635 32.4809Z" fill="#A601FF"/>
</svg>
