<svg width="50" height="50" viewBox="0 0 50 50" fill="none" xmlns="http://www.w3.org/2000/svg">
<circle cx="25" cy="25" r="25" fill="#F9EFFF"/>
<path d="M31.3067 33.5905C31.4037 33.6345 31.5007 33.65 31.5973 33.65C31.8731 33.65 32.1339 33.5008 32.2606 33.24C33.7218 30.2955 34.0723 27.686 33.3042 25.4795C32.6555 23.6233 31.3732 22.5713 30.6649 22.1173C30.2998 25.1144 29.3903 28.4244 27.9364 31.9805C27.914 32.04 27.8842 32.0999 27.8545 32.1521L31.3067 33.5905Z" fill="#A601FF"/>
<path d="M10.396 25.4788C9.62832 27.6854 9.97836 30.2948 11.4323 33.2394C11.5664 33.5002 11.8276 33.6493 12.1027 33.6493C12.2004 33.6493 12.2974 33.6335 12.394 33.5898L15.8457 32.151C15.816 32.0988 15.7862 32.0393 15.7638 31.9794C14.3099 28.4079 13.393 25.106 13.028 22.1089C12.312 22.5791 11.0447 23.6292 10.3961 25.4787L10.396 25.4788Z" fill="#A601FF"/>
<path d="M26.8695 10.0935C24.8878 6.82904 22.4216 5.22255 22.2489 5.11127C22.0028 4.96291 21.6972 4.96291 21.451 5.11127C21.2787 5.22255 18.8106 6.82825 16.8274 10.0927C18.3578 10.9172 20.0748 11.3665 21.844 11.3665C23.6179 11.3669 25.3375 10.9176 26.8695 10.0935H26.8695Z" fill="#A601FF"/>
<path d="M21.8501 21.0497C22.8574 21.0497 23.6765 20.2306 23.6765 19.2233C23.6765 18.216 22.857 17.3961 21.8501 17.3961C20.8428 17.3961 20.0229 18.2164 20.0229 19.2233C20.0229 20.2306 20.8428 21.0497 21.8501 21.0497Z" fill="#A601FF"/>
<path d="M14.332 19.2169C14.332 22.7433 15.2786 26.8434 17.1425 31.4205C17.2533 31.6963 17.53 31.8826 17.8275 31.8826H25.8647C26.1696 31.8826 26.4462 31.6963 26.5571 31.4205C28.4209 26.8432 29.361 22.7353 29.361 19.2169C29.361 16.0522 28.6014 13.4662 27.5845 11.4004C25.8346 12.3435 23.8688 12.8577 21.8434 12.8577C19.8216 12.8577 17.8588 12.3427 16.1105 11.3988C15.0924 13.4647 14.3321 16.0518 14.3321 19.2169H14.332ZM21.8504 15.9054C23.6798 15.9054 25.1677 17.3933 25.1677 19.2228C25.1677 21.0522 23.6798 22.5409 21.8504 22.5409C20.0209 22.5409 18.5322 21.0522 18.5322 19.2228C18.5322 17.3937 20.0209 15.9054 21.8504 15.9054Z" fill="#A601FF"/>
<path d="M17.8281 33.3739C17.7832 33.3739 17.7462 33.3739 17.7013 33.3666C17.5074 34.0377 17.3807 34.895 17.4479 35.9236C17.463 36.1322 17.5673 36.3189 17.7311 36.4305C17.9026 36.5572 18.1113 36.5947 18.3126 36.5422L19.1699 36.3185C19.1475 37.8542 19.401 40.7617 21.4588 42.1557C21.5782 42.2303 21.7123 42.2759 21.8463 42.2759C21.9881 42.2759 22.1222 42.2303 22.2339 42.1557C24.299 40.7617 24.5524 37.8543 24.5301 36.3185L25.3874 36.5422C25.5887 36.5943 25.7973 36.5572 25.9689 36.4305C26.1331 36.3189 26.2374 36.1322 26.2521 35.9236C26.3193 34.8947 26.1926 34.0374 25.9986 33.3666C25.9538 33.3739 25.909 33.3739 25.8646 33.3739H17.8281Z" fill="#A601FF"/>
<path d="M33.1062 17.7729C33.4699 18.1214 33.8941 18.379 34.3487 18.5457C34.8184 18.7123 35.273 18.8032 35.7123 18.8032C35.8185 18.8032 35.9245 18.7881 36.0306 18.7729C36.1367 18.7578 36.2427 18.7123 36.3488 18.6668C36.4397 18.6062 36.5155 18.5456 36.5761 18.4547C36.6366 18.3638 36.667 18.2577 36.667 18.1213C36.667 17.8789 36.5306 17.6971 36.2427 17.5607C35.9548 17.4244 35.6215 17.288 35.2275 17.1516C34.8791 17.0304 34.5305 16.894 34.1517 16.7577C33.788 16.6061 33.4546 16.4243 33.1365 16.1819C32.8335 15.9546 32.5759 15.6667 32.3789 15.3334C32.1819 15 32.0759 14.5909 32.0759 14.1061C32.0759 13.6818 32.1517 13.3031 32.288 12.9697C32.4244 12.6364 32.6214 12.3484 32.8638 12.1212C33.1063 11.8788 33.3487 11.697 33.6669 11.5454C33.9851 11.3939 34.3487 11.2879 34.6517 11.2121L34.6516 10H36.4698V11.1819C36.9244 11.2424 37.3486 11.3636 37.7578 11.5303C38.1669 11.697 38.5457 11.9395 38.8942 12.2576L37.5608 14.0152C37.3032 13.8031 37.0002 13.6213 36.6668 13.5001C36.3335 13.3789 36.0154 13.3183 35.7122 13.3183C35.591 13.3183 35.4698 13.3183 35.3334 13.3334C35.1971 13.3485 35.0759 13.3789 34.9546 13.4243C34.8334 13.4698 34.7425 13.5456 34.6667 13.6364C34.5909 13.7273 34.5455 13.8486 34.5455 14.0152C34.5455 14.1516 34.5909 14.2577 34.6667 14.3486C34.7425 14.4395 34.8485 14.5153 35.0001 14.591C35.1364 14.6668 35.3031 14.7274 35.4697 14.8032C35.6515 14.8637 35.8334 14.9244 36.0303 14.985C36.3637 15.0911 36.7122 15.2274 37.091 15.3638C37.4546 15.5001 37.788 15.6971 38.1061 15.9244C38.4092 16.1516 38.6667 16.4395 38.8637 16.7881C39.0607 17.1365 39.1667 17.5608 39.1667 18.076C39.1667 18.47 39.091 18.8185 38.9395 19.1367C38.788 19.4549 38.591 19.7276 38.3486 19.9548C38.1061 20.182 37.8182 20.3791 37.4849 20.5457C37.1515 20.6973 36.7576 20.8184 36.4546 20.8942L36.4547 22.2732H34.6819V20.9398C34.2273 20.8792 33.6061 20.7428 33.0758 20.5306C32.5455 20.3185 32.091 20.0155 31.6667 19.6064L33.1062 17.7729Z" fill="#A601FF"/>
<path d="M12.4664 40.9849C12.6685 41.1785 12.9042 41.3216 13.1567 41.4142C13.4177 41.5068 13.6702 41.5573 13.9143 41.5573C13.9733 41.5573 14.0321 41.5489 14.0911 41.5405C14.1501 41.5321 14.209 41.5068 14.2679 41.4815C14.3184 41.4479 14.3605 41.4142 14.3942 41.3637C14.4278 41.3132 14.4446 41.2542 14.4446 41.1785C14.4446 41.0438 14.3689 40.9428 14.209 40.867C14.049 40.7913 13.8638 40.7155 13.645 40.6397C13.4514 40.5724 13.2577 40.4966 13.0473 40.4209C12.8452 40.3367 12.66 40.2357 12.4833 40.101C12.3149 39.9748 12.1718 39.8148 12.0624 39.6296C11.9529 39.4444 11.8941 39.2171 11.8941 38.9478C11.8941 38.7121 11.9362 38.5017 12.0119 38.3165C12.0876 38.1313 12.1971 37.9713 12.3318 37.8451C12.4665 37.7104 12.6012 37.6094 12.7779 37.5252C12.9547 37.441 13.1567 37.3821 13.3251 37.34L13.325 36.6666H14.3351V37.3232C14.5877 37.3569 14.8233 37.4242 15.0507 37.5168C15.2779 37.6094 15.4884 37.7441 15.682 37.9208L14.9412 38.8973C14.7981 38.7795 14.6298 38.6785 14.4446 38.6111C14.2594 38.5438 14.0826 38.5101 13.9142 38.5101C13.8469 38.5101 13.7795 38.5101 13.7038 38.5185C13.628 38.5269 13.5607 38.5438 13.4934 38.569C13.426 38.5943 13.3755 38.6364 13.3334 38.6869C13.2913 38.7374 13.266 38.8047 13.266 38.8973C13.266 38.9731 13.2913 39.032 13.3334 39.0825C13.3755 39.133 13.4344 39.1751 13.5186 39.2172C13.5943 39.2593 13.6869 39.293 13.7795 39.3351C13.8805 39.3687 13.9816 39.4024 14.091 39.436C14.2762 39.495 14.4698 39.5707 14.6802 39.6465C14.8822 39.7222 15.0674 39.8317 15.2442 39.9579C15.4125 40.0842 15.5556 40.2441 15.6651 40.4378C15.7745 40.6314 15.8334 40.8671 15.8334 41.1533C15.8334 41.3722 15.7913 41.5658 15.7072 41.7425C15.623 41.9193 15.5136 42.0708 15.3789 42.1971C15.2442 42.3233 15.0842 42.4328 14.899 42.5254C14.7138 42.6096 14.495 42.6769 14.3267 42.719L14.3267 43.4851H13.3418V42.7443C13.0893 42.7106 12.7441 42.6348 12.4496 42.517C12.1549 42.3991 11.9024 42.2308 11.6667 42.0035L12.4664 40.9849Z" fill="#A601FF"/>
</svg>
