<svg width="50" height="50" viewBox="0 0 50 50" fill="none" xmlns="http://www.w3.org/2000/svg">
<circle cx="25" cy="25" r="25" fill="#F9EFFF"/>
<path d="M13.6667 19.1588H20.5755L20.5757 12.25H13.6669L13.6667 19.1588ZM15.8428 14.4261H18.3996V16.9829H15.8428V14.4261Z" fill="#A601FF"/>
<path d="M23.2139 12.25H36.3243V14.426H23.2139V12.25Z" fill="#A601FF"/>
<path d="M23.2139 16.9824H33.6859V19.1585H23.2139V16.9824Z" fill="#A601FF"/>
<path d="M13.6667 28.6246H20.5755L20.5757 21.7158H13.6669L13.6667 28.6246ZM15.8428 23.8918H18.3996V26.4486H15.8428V23.8918Z" fill="#A601FF"/>
<path d="M23.2139 21.7158H36.3243V23.8919H23.2139V21.7158Z" fill="#A601FF"/>
<path d="M23.2139 26.4482H33.6859V28.6243H23.2139V26.4482Z" fill="#A601FF"/>
<path d="M13.6667 38.0904H20.5755L20.5757 31.1816H13.6669L13.6667 38.0904ZM15.8428 33.3576H18.3996V35.9144H15.8428V33.3576Z" fill="#A601FF"/>
<path d="M23.2139 31.1816H36.3243V33.3577H23.2139V31.1816Z" fill="#A601FF"/>
<path d="M23.2139 35.9141H33.6859V38.0901H23.2139V35.9141Z" fill="#A601FF"/>
</svg>
