<svg width="50" height="50" viewBox="0 0 50 50" fill="none" xmlns="http://www.w3.org/2000/svg">
<circle cx="25" cy="25" r="25" fill="#E8F5FF"/>
<path d="M31.3066 33.5905C31.4036 33.6345 31.5006 33.65 31.5972 33.65C31.873 33.65 32.1338 33.5008 32.2606 33.24C33.7218 30.2955 34.0722 27.686 33.3042 25.4795C32.6554 23.6233 31.3731 22.5713 30.6648 22.1173C30.2997 25.1144 29.3902 28.4244 27.9363 31.9805C27.9139 32.04 27.8842 32.0999 27.8544 32.1521L31.3066 33.5905Z" fill="#248CD8"/>
<path d="M10.396 25.4789C9.62832 27.6854 9.97836 30.2949 11.4323 33.2394C11.5664 33.5002 11.8276 33.6494 12.1027 33.6494C12.2004 33.6494 12.2974 33.6335 12.394 33.5899L15.8457 32.151C15.816 32.0989 15.7862 32.0394 15.7638 31.9795C14.3099 28.4079 13.393 25.106 13.028 22.1089C12.312 22.5792 11.0447 23.6293 10.3961 25.4788L10.396 25.4789Z" fill="#248CD8"/>
<path d="M26.8696 10.0935C24.8879 6.82904 22.4217 5.22255 22.249 5.11127C22.0029 4.96291 21.6972 4.96291 21.4511 5.11127C21.2788 5.22255 18.8107 6.82825 16.8275 10.0927C18.3579 10.9172 20.0749 11.3665 21.8441 11.3665C23.6179 11.3669 25.3376 10.9176 26.8696 10.0935H26.8696Z" fill="#248CD8"/>
<path d="M21.8501 21.0497C22.8574 21.0497 23.6764 20.2306 23.6764 19.2233C23.6764 18.216 22.8569 17.3962 21.8501 17.3962C20.8428 17.3962 20.0229 18.2164 20.0229 19.2233C20.0229 20.2306 20.8428 21.0497 21.8501 21.0497Z" fill="#248CD8"/>
<path d="M14.3319 19.2169C14.3319 22.7433 15.2785 26.8434 17.1424 31.4205C17.2533 31.6963 17.5299 31.8826 17.8274 31.8826H25.8646C26.1695 31.8826 26.4461 31.6963 26.557 31.4205C28.4209 26.8432 29.3609 22.7353 29.3609 19.2169C29.3609 16.0522 28.6013 13.4662 27.5844 11.4004C25.8346 12.3435 23.8687 12.8577 21.8433 12.8577C19.8215 12.8577 17.8588 12.3427 16.1104 11.3988C15.0923 13.4647 14.332 16.0518 14.332 19.2169H14.3319ZM21.8503 15.9054C23.6797 15.9054 25.1676 17.3933 25.1676 19.2228C25.1676 21.0522 23.6797 22.5409 21.8503 22.5409C20.0208 22.5409 18.5322 21.0522 18.5322 19.2228C18.5322 17.3937 20.0208 15.9054 21.8503 15.9054Z" fill="#248CD8"/>
<path d="M17.8281 33.3739C17.7833 33.3739 17.7462 33.3739 17.7014 33.3666C17.5074 34.0377 17.3807 34.895 17.4479 35.9236C17.463 36.1322 17.5673 36.3189 17.7311 36.4305C17.9027 36.5572 18.1113 36.5947 18.3126 36.5422L19.17 36.3185C19.1475 37.8542 19.401 40.7617 21.4588 42.1557C21.5782 42.2303 21.7123 42.2759 21.8464 42.2759C21.9882 42.2759 22.1222 42.2303 22.2339 42.1557C24.299 40.7617 24.5524 37.8543 24.5301 36.3185L25.3874 36.5422C25.5887 36.5943 25.7974 36.5572 25.9689 36.4305C26.1331 36.3189 26.2374 36.1322 26.2521 35.9236C26.3194 34.8947 26.1926 34.0374 25.9987 33.3666C25.9539 33.3739 25.909 33.3739 25.8646 33.3739H17.8281Z" fill="#248CD8"/>
<path d="M33.1061 17.7729C33.4698 18.1214 33.894 18.379 34.3486 18.5457C34.8183 18.7123 35.2729 18.8032 35.7123 18.8032C35.8184 18.8032 35.9244 18.7881 36.0305 18.7729C36.1366 18.7578 36.2426 18.7123 36.3487 18.6668C36.4396 18.6062 36.5154 18.5456 36.576 18.4547C36.6365 18.3638 36.6669 18.2577 36.6669 18.1213C36.6669 17.8789 36.5305 17.6971 36.2426 17.5607C35.9547 17.4244 35.6214 17.288 35.2274 17.1516C34.879 17.0304 34.5304 16.894 34.1516 16.7577C33.7879 16.6061 33.4546 16.4243 33.1364 16.1819C32.8334 15.9546 32.5758 15.6667 32.3788 15.3334C32.1818 15 32.0758 14.5909 32.0758 14.1061C32.0758 13.6818 32.1516 13.3031 32.2879 12.9697C32.4243 12.6364 32.6213 12.3484 32.8637 12.1212C33.1062 11.8788 33.3486 11.697 33.6668 11.5454C33.985 11.3939 34.3486 11.2879 34.6516 11.2121L34.6515 10H36.4697V11.1819C36.9243 11.2424 37.3485 11.3636 37.7577 11.5303C38.1668 11.697 38.5456 11.9395 38.8941 12.2576L37.5607 14.0152C37.3031 13.8031 37.0001 13.6213 36.6667 13.5001C36.3334 13.3789 36.0153 13.3183 35.7121 13.3183C35.5909 13.3183 35.4697 13.3183 35.3333 13.3334C35.197 13.3485 35.0758 13.3789 34.9545 13.4243C34.8333 13.4698 34.7424 13.5456 34.6666 13.6364C34.5908 13.7273 34.5454 13.8486 34.5454 14.0152C34.5454 14.1516 34.5908 14.2577 34.6666 14.3486C34.7424 14.4395 34.8484 14.5153 35 14.591C35.1363 14.6668 35.303 14.7274 35.4697 14.8032C35.6514 14.8637 35.8333 14.9244 36.0303 14.985C36.3636 15.0911 36.7121 15.2274 37.0909 15.3638C37.4545 15.5001 37.7879 15.6971 38.106 15.9244C38.4091 16.1516 38.6666 16.4395 38.8636 16.7881C39.0607 17.1365 39.1667 17.5608 39.1667 18.076C39.1667 18.47 39.0909 18.8185 38.9394 19.1367C38.7879 19.4549 38.591 19.7276 38.3485 19.9548C38.106 20.182 37.8181 20.3791 37.4848 20.5457C37.1514 20.6973 36.7575 20.8184 36.4545 20.8942L36.4546 22.2732H34.6818V20.9398C34.2272 20.8792 33.606 20.7428 33.0757 20.5306C32.5454 20.3185 32.0909 20.0155 31.6667 19.6064L33.1061 17.7729Z" fill="#248CD8"/>
<path d="M12.4664 40.985C12.6684 41.1786 12.9041 41.3217 13.1566 41.4143C13.4176 41.5069 13.6701 41.5574 13.9142 41.5574C13.9732 41.5574 14.0321 41.549 14.091 41.5405C14.15 41.5321 14.2089 41.5069 14.2678 41.4816C14.3183 41.4479 14.3604 41.4142 14.3941 41.3637C14.4277 41.3132 14.4446 41.2543 14.4446 41.1785C14.4446 41.0438 14.3688 40.9428 14.2089 40.8671C14.0489 40.7913 13.8637 40.7156 13.6449 40.6398C13.4513 40.5724 13.2576 40.4967 13.0472 40.4209C12.8451 40.3367 12.6599 40.2358 12.4832 40.1011C12.3148 39.9748 12.1717 39.8149 12.0623 39.6297C11.9529 39.4445 11.894 39.2172 11.894 38.9479C11.894 38.7122 11.9361 38.5017 12.0118 38.3165C12.0876 38.1313 12.197 37.9714 12.3317 37.8451C12.4664 37.7104 12.6011 37.6094 12.7778 37.5253C12.9546 37.4411 13.1566 37.3822 13.325 37.3401L13.3249 36.6667H14.335V37.3233C14.5876 37.3569 14.8233 37.4243 15.0506 37.5169C15.2779 37.6095 15.4883 37.7442 15.6819 37.9209L14.9411 38.8974C14.798 38.7795 14.6297 38.6785 14.4445 38.6112C14.2593 38.5438 14.0825 38.5102 13.9141 38.5102C13.8468 38.5102 13.7794 38.5102 13.7037 38.5186C13.628 38.527 13.5606 38.5438 13.4933 38.5691C13.4259 38.5943 13.3754 38.6364 13.3333 38.6869C13.2912 38.7374 13.266 38.8048 13.266 38.8974C13.266 38.9731 13.2912 39.0321 13.3333 39.0826C13.3754 39.1331 13.4343 39.1752 13.5185 39.2173C13.5942 39.2594 13.6868 39.293 13.7794 39.3351C13.8804 39.3688 13.9815 39.4025 14.0909 39.4361C14.2761 39.4951 14.4697 39.5708 14.6801 39.6466C14.8821 39.7223 15.0674 39.8317 15.2441 39.958C15.4124 40.0842 15.5555 40.2442 15.665 40.4378C15.7744 40.6314 15.8333 40.8671 15.8333 41.1534C15.8333 41.3722 15.7912 41.5659 15.7071 41.7426C15.6229 41.9194 15.5135 42.0709 15.3788 42.1971C15.2441 42.3234 15.0841 42.4328 14.8989 42.5254C14.7138 42.6096 14.4949 42.6769 14.3266 42.719L14.3266 43.4851H13.3417V42.7443C13.0892 42.7107 12.7441 42.6349 12.4495 42.517C12.1548 42.3992 11.9024 42.2309 11.6667 42.0036L12.4664 40.985Z" fill="#248CD8"/>
</svg>
