<svg width="46" height="47" viewBox="0 0 46 47" fill="none" xmlns="http://www.w3.org/2000/svg">
<circle cx="23" cy="23.5" r="23" fill="#F9EFFF"/>
<path fill-rule="evenodd" clip-rule="evenodd" d="M30.0188 28.0878L30.0194 15.3606L21.4449 15.3986V16.5454H28.8343V28.0879L30.0188 28.0878ZM27.9735 30.1332L27.9741 17.4059L19.3996 17.444V18.5907H26.789V30.1332L27.9735 30.1332ZM25.1512 25.3734C25.1512 23.2986 23.4693 21.6167 21.3946 21.6167C19.3198 21.6167 17.6379 23.2987 17.6379 25.3734C17.6379 27.4478 19.3197 29.13 21.3946 29.13C23.4692 29.13 25.1512 27.448 25.1512 25.3734ZM30.88 14.5V28.9863H28.8347V31.0316H26.7894V31.6006L25.3696 33.0202L24.3711 32.0219L23.3585 33.0178L22.3711 32.0304L21.3669 33.0178L20.3796 32.0304L19.3753 33.0178L18.382 32.0244L17.3862 33.0203L16 31.6344V18.5908H18.5011V16.5454H20.5465V14.5001L30.88 14.5ZM22.6796 25.6133C22.9611 26.1593 22.8458 26.9708 22.3296 27.3592C22.1682 27.4807 21.9739 27.557 21.7714 27.5974L21.839 28.1203H20.9258L20.9954 27.5816C20.8021 27.5335 20.6203 27.4501 20.4691 27.3263C20.1792 27.0898 20.0291 26.7364 19.9605 26.3761L20.6557 26.2192C20.7157 26.5921 20.9927 26.8868 21.4034 26.8868C21.6349 26.8868 21.8093 26.828 21.9267 26.7103C22.0767 26.56 22.1554 26.3328 22.0744 26.1335C21.9682 25.8724 21.6441 25.7966 21.3919 25.7219C21.1071 25.6376 20.8111 25.5625 20.5665 25.3936C19.837 24.8903 19.8881 23.6732 20.7329 23.3049C20.8192 23.2671 20.9102 23.2419 21.0028 23.2224L20.9258 22.6264H21.839L21.7608 23.2325C21.9127 23.2677 22.0592 23.3215 22.1891 23.4036C22.4637 23.5773 22.6125 23.8548 22.6778 24.1518L21.9486 24.2962C21.9134 24.1927 21.8577 24.0962 21.771 24.0265C21.6697 23.9454 21.535 23.908 21.4024 23.9039C21.1651 23.8961 20.855 23.9577 20.7645 24.1968C20.7144 24.329 20.7483 24.4828 20.8493 24.5849C20.9402 24.6764 21.1604 24.7716 21.5102 24.8708C21.8599 24.97 22.1187 25.0727 22.2863 25.1787C22.4538 25.2848 22.5849 25.4296 22.6796 25.6133L22.6796 25.6133Z" fill="#A601FF"/>
</svg>
