<svg width="50" height="50" viewBox="0 0 50 50" fill="none" xmlns="http://www.w3.org/2000/svg">
<circle cx="25" cy="25" r="25" fill="#FFF4E8"/>
<path d="M24.4614 10H24.4611C18.6509 10 13.9486 14.702 13.9486 20.5109C13.9486 21.237 14.022 21.945 14.162 22.6289C14.2289 22.9559 14.3115 23.2774 14.4082 23.5925V23.5927C14.4546 23.6952 14.4477 23.8139 14.3894 23.9102C14.3845 23.9184 14.3792 23.9262 14.3738 23.934C14.3718 23.9374 14.3698 23.9405 14.3678 23.9436L11.8316 27.5358C11.8229 27.5496 11.8133 27.5628 11.8028 27.5753C11.793 27.5874 11.7827 27.5988 11.7713 27.6092C11.6454 27.7438 11.6332 27.9383 11.7347 28.0845C12.6037 28.3764 13.118 29.2936 12.9044 30.1914V30.1916C12.8972 30.2485 12.8758 30.3028 12.8421 30.3494C12.7501 30.48 12.737 30.5981 12.7647 30.7012C12.7899 30.7952 12.8513 30.8829 12.9711 30.9487C13.026 30.9664 13.0756 30.9978 13.1151 31.0398C13.1814 31.1054 13.218 31.1956 13.2162 31.2889C13.2144 31.3822 13.1742 31.4706 13.1055 31.5338C13.0484 31.6403 13.0421 31.738 13.0653 31.8249C13.0919 31.9242 13.1595 32.0162 13.2934 32.0829C14.4615 32.413 15.1727 33.5976 14.8805 34.7566C14.8744 34.795 14.8617 34.8322 14.8432 34.8666C14.8407 34.8708 14.8383 34.8751 14.8358 34.8793C14.555 35.3655 14.7191 35.9771 15.2052 36.2577C15.32 36.324 15.441 36.3639 15.5633 36.3818H15.5635C15.5787 36.3831 15.5936 36.3856 15.6086 36.3889C15.6258 36.3918 15.6427 36.3961 15.6595 36.4016C18.5481 37.1672 21.4703 36.6945 23.8692 35.3099C23.9252 35.2767 23.9897 35.2599 24.0549 35.2622C24.208 35.2673 24.3388 35.3735 24.3748 35.5224C24.4109 35.6711 24.3435 35.8256 24.2101 35.9003C23.7835 36.1465 23.3409 36.3648 22.8857 36.5552C22.8931 36.5802 22.8975 36.6061 22.8991 36.632L23.1821 40.9791C26.3351 41.7941 29.5096 41.2651 32.153 39.7313L31.8595 34.6959L31.0472 34.691V34.6907C31.0139 34.7012 30.9795 34.7066 30.9447 34.7066H20.091C19.9028 34.7066 19.7504 34.5539 19.7504 34.366V26.4088C19.7504 26.3182 19.7861 26.2316 19.8499 26.1675C19.914 26.1035 20.0006 26.0675 20.091 26.0675H23.3683V22.7914C23.3685 22.6032 23.521 22.4508 23.7089 22.4506H26.9862V19.1744C26.9862 19.084 27.0219 18.9972 27.0859 18.9334C27.1498 18.8693 27.2364 18.8334 27.3268 18.8331H30.9448H30.9457H30.9468L32.1835 18.8427V18.843C32.3707 18.8443 32.5216 18.9968 32.5214 19.184V20.59C33.0781 20.7391 33.6094 20.9646 34.1054 21.2624L34.9728 20.3747C34.8991 14.6295 30.2257 10.001 24.4614 10.001L24.4614 10ZM28.4747 13.7607C28.487 13.7614 28.4991 13.7625 28.5111 13.7643C28.6107 13.7765 28.6997 13.8317 28.7547 13.9151C28.7564 13.9176 28.758 13.9201 28.7596 13.9225C28.7616 13.9261 28.7636 13.9297 28.7656 13.9332C28.7892 13.9739 28.8042 14.0187 28.8098 14.0651L29.116 15.2045C29.1415 15.2924 29.1305 15.3868 29.0857 15.4667C29.0406 15.5464 28.9656 15.6047 28.8772 15.6286C28.7888 15.6522 28.6944 15.6395 28.6156 15.5931C28.5368 15.5466 28.4799 15.4703 28.4578 15.3815L28.3694 15.0533C26.4681 18.5723 23.3212 21.3871 19.2848 22.7459V22.7461C19.1989 22.7763 19.1042 22.7707 19.0223 22.7307C18.9406 22.6908 18.8781 22.6196 18.8489 22.5332C18.8199 22.4468 18.8266 22.3524 18.8676 22.2709C18.9087 22.1895 18.9808 22.1281 19.0674 22.0999C22.9728 20.7845 26.0045 18.0531 27.8223 14.6314L27.3488 14.7577C27.2609 14.7831 27.1662 14.772 27.0865 14.7269C27.0069 14.6818 26.9486 14.6064 26.9249 14.518C26.9015 14.4294 26.9144 14.3352 26.9611 14.2564C27.0077 14.1776 27.0843 14.1209 27.1734 14.099L28.3256 13.7912C28.372 13.7702 28.4227 13.7597 28.4736 13.7608L28.4747 13.7607ZM27.6676 19.5144V34.0247H30.6038V19.5144H27.6676ZM31.2854 19.5169V23.8934C32.7696 23.8959 33.9506 25.1997 33.9506 26.766C33.9506 28.3323 32.7696 29.6361 31.2854 29.6379V34.0105L31.8399 34.0154V32.7004C31.8399 32.5399 31.9519 32.4013 32.1086 32.3671C32.7756 32.2234 33.4118 31.956 33.9854 31.5777C34.1216 31.4879 34.3024 31.5073 34.4167 31.6241L35.3151 32.5431L36.5868 31.2421L35.675 30.3091H35.6748C35.5638 30.1959 35.5455 30.0214 35.6303 29.8877C36.0029 29.3013 36.2678 28.6497 36.4114 27.9653H36.4116C36.4446 27.8075 36.5839 27.6946 36.7453 27.6946H38.0209V25.847H36.7406C36.579 25.847 36.4395 25.7334 36.4069 25.5749C36.2658 24.8899 36.0033 24.2377 35.633 23.6499C35.5489 23.5164 35.5674 23.3425 35.6779 23.2296L36.5866 22.2997L35.3149 20.9993L34.4136 21.9211C34.2991 22.0381 34.1176 22.0571 33.9814 21.9667C33.4093 21.5861 32.7745 21.3164 32.1078 21.17C31.9513 21.1357 31.8399 20.9968 31.8399 20.8368V19.5218L31.2854 19.5169ZM32.1218 22.0191V22.0189C32.156 22.0195 32.1899 22.0253 32.2223 22.036C32.529 22.1323 32.821 22.2586 33.0964 22.4115H33.0966C33.1756 22.4552 33.2341 22.5287 33.2591 22.6157C33.2841 22.7026 33.2734 22.7959 33.2296 22.8751C33.1857 22.9541 33.1122 23.0126 33.0252 23.0376C32.9384 23.0624 32.8451 23.0519 32.7658 23.0079C32.5301 22.8771 32.2801 22.7691 32.018 22.6869C31.8542 22.6387 31.7513 22.4765 31.7774 22.3075C31.8035 22.1387 31.9509 22.0153 32.1216 22.0189L32.1218 22.0191ZM24.0493 23.1314V34.0245H26.9859V23.1314H24.0493ZM34.2544 23.4856L34.2542 23.4854C34.3584 23.4865 34.4562 23.5352 34.52 23.6173C34.7153 23.8613 34.8879 24.1247 35.0347 24.4035C35.1225 24.57 35.0584 24.7762 34.8919 24.864C34.7251 24.9517 34.5191 24.8876 34.4314 24.7209C34.3046 24.4803 34.156 24.2533 33.9877 24.043C33.9033 23.9408 33.8861 23.7988 33.9432 23.6794C34.0004 23.5597 34.1218 23.4841 34.2542 23.4854L34.2544 23.4856ZM31.2852 24.5751V28.9557C32.3687 28.9532 33.2685 27.9934 33.2685 26.7657C33.2685 25.5381 32.3687 24.5769 31.2852 24.5751ZM35.2412 25.9226C35.4202 25.9197 35.5709 26.0559 35.5863 26.2342C35.6193 26.5608 35.6211 26.8954 35.5887 27.2347C35.5827 27.3267 35.5399 27.4124 35.4696 27.4722C35.3995 27.5318 35.3079 27.5606 35.2162 27.5519C35.1245 27.5432 35.0401 27.4976 34.9825 27.4255C34.9249 27.3537 34.8988 27.2613 34.9104 27.17C34.9385 26.8753 34.937 26.5854 34.9079 26.3028V26.3025C34.897 26.207 34.9269 26.1112 34.9903 26.0389C35.0537 25.9664 35.145 25.9242 35.2412 25.9226L35.2412 25.9226ZM20.4309 26.7483V34.0243H23.3675V26.7483H20.4309ZM34.7206 28.6097H34.7208C34.8429 28.6063 34.9575 28.6684 35.0213 28.7726C35.0851 28.8766 35.0883 29.007 35.0296 29.1141C34.8804 29.3972 34.7052 29.663 34.5081 29.9088C34.4525 29.9822 34.3697 30.03 34.2782 30.0411C34.1869 30.0525 34.095 30.0264 34.0231 29.9686C33.9514 29.911 33.9059 29.8268 33.8972 29.7351C33.8885 29.6436 33.9173 29.5523 33.9769 29.482C34.147 29.2702 34.2974 29.0405 34.4262 28.796C34.4827 28.6849 34.5954 28.6137 34.7202 28.6099H34.7206H34.7209L34.7206 28.6097ZM32.915 30.4757L32.9152 30.4759C32.9231 30.4757 32.9311 30.4757 32.9389 30.4759C33.092 30.4826 33.2217 30.5905 33.2563 30.7398C33.2907 30.8889 33.2215 31.0429 33.0869 31.1161C32.8148 31.269 32.5273 31.396 32.228 31.4936V31.4934C32.1418 31.5217 32.0481 31.5143 31.9673 31.4735C31.8865 31.4324 31.8253 31.361 31.7974 31.2748C31.7693 31.1887 31.7769 31.0949 31.8179 31.0141C31.8592 30.9335 31.9309 30.8724 32.0171 30.8447C32.2731 30.7614 32.5193 30.653 32.7528 30.5217C32.8023 30.4929 32.8581 30.4773 32.9153 30.4757L32.915 30.4757Z" fill="#F29425"/>
</svg>
