<svg width="50" height="50" viewBox="0 0 50 50" fill="none" xmlns="http://www.w3.org/2000/svg">
<circle cx="25" cy="25" r="25" fill="#FFF8DF"/>
<path d="M24.4612 10H24.461C18.6507 10 13.9485 14.702 13.9485 20.5109C13.9485 21.237 14.0219 21.945 14.1618 22.6289C14.2288 22.9559 14.3114 23.2774 14.4081 23.5925V23.5927C14.4545 23.6952 14.4476 23.8139 14.3893 23.9102C14.3844 23.9184 14.379 23.9262 14.3737 23.934C14.3717 23.9374 14.3697 23.9405 14.3676 23.9436L11.8315 27.5358C11.8228 27.5496 11.8132 27.5628 11.8027 27.5753C11.7929 27.5874 11.7826 27.5988 11.7712 27.6092C11.6453 27.7438 11.633 27.9383 11.7346 28.0845C12.6036 28.3764 13.1179 29.2936 12.9043 30.1914V30.1916C12.8971 30.2485 12.8757 30.3028 12.842 30.3494C12.75 30.48 12.7369 30.5981 12.7645 30.7012C12.7898 30.7952 12.8511 30.8829 12.971 30.9487C13.0259 30.9664 13.0755 30.9978 13.115 31.0398C13.1813 31.1054 13.2179 31.1956 13.2161 31.2889C13.2143 31.3822 13.1741 31.4706 13.1054 31.5338C13.0482 31.6403 13.042 31.738 13.0652 31.8249C13.0918 31.9242 13.1594 32.0162 13.2933 32.0829C14.4614 32.413 15.1726 33.5976 14.8804 34.7566C14.8743 34.795 14.8616 34.8322 14.8431 34.8666C14.8406 34.8708 14.8382 34.8751 14.8357 34.8793C14.5549 35.3655 14.719 35.9771 15.2051 36.2577C15.3199 36.324 15.4408 36.3639 15.5632 36.3818H15.5634C15.5786 36.3831 15.5935 36.3856 15.6085 36.3889C15.6257 36.3918 15.6426 36.3961 15.6594 36.4016C18.548 37.1672 21.4702 36.6945 23.8691 35.3099C23.9251 35.2767 23.9896 35.2599 24.0548 35.2622C24.2079 35.2673 24.3387 35.3735 24.3747 35.5224C24.4108 35.6711 24.3434 35.8256 24.2099 35.9003C23.7834 36.1465 23.3407 36.3648 22.8856 36.5552C22.893 36.5802 22.8974 36.6061 22.899 36.632L23.182 40.9791C26.3349 41.7941 29.5094 41.2651 32.1529 39.7313L31.8593 34.6959L31.0471 34.691V34.6907C31.0138 34.7012 30.9794 34.7066 30.9446 34.7066H20.0909C19.9027 34.7066 19.7503 34.5539 19.7503 34.366V26.4088C19.7503 26.3182 19.786 26.2316 19.8498 26.1675C19.9139 26.1035 20.0005 26.0675 20.0909 26.0675H23.3682V22.7914C23.3684 22.6032 23.5208 22.4508 23.7088 22.4506H26.986V19.1744C26.986 19.084 27.0217 18.9972 27.0858 18.9334C27.1497 18.8693 27.2363 18.8334 27.3267 18.8331H30.9447H30.9456H30.9467L32.1833 18.8427V18.843C32.3706 18.8443 32.5215 18.9968 32.5213 19.184V20.59C33.078 20.7391 33.6092 20.9646 34.1052 21.2624L34.9727 20.3747C34.899 14.6295 30.2256 10.001 24.4612 10.001L24.4612 10ZM28.4746 13.7607C28.4869 13.7614 28.4989 13.7625 28.511 13.7643C28.6106 13.7765 28.6996 13.8317 28.7545 13.9151C28.7563 13.9176 28.7579 13.9201 28.7594 13.9225C28.7614 13.9261 28.7635 13.9297 28.7655 13.9332C28.7891 13.9739 28.8041 14.0187 28.8097 14.0651L29.1159 15.2045C29.1414 15.2924 29.1304 15.3868 29.0856 15.4667C29.0405 15.5464 28.9655 15.6047 28.8771 15.6286C28.7887 15.6522 28.6943 15.6395 28.6155 15.5931C28.5367 15.5466 28.4798 15.4703 28.4577 15.3815L28.3693 15.0533C26.4679 18.5723 23.321 21.3871 19.2847 22.7459V22.7461C19.1988 22.7763 19.1041 22.7707 19.0222 22.7307C18.9405 22.6908 18.878 22.6196 18.8488 22.5332C18.8197 22.4468 18.8264 22.3524 18.8675 22.2709C18.9086 22.1895 18.9807 22.1281 19.0673 22.0999C22.9726 20.7845 26.0044 18.0531 27.8221 14.6314L27.3487 14.7577C27.2607 14.7831 27.1661 14.772 27.0864 14.7269C27.0067 14.6818 26.9485 14.6064 26.9248 14.518C26.9014 14.4294 26.9143 14.3352 26.961 14.2564C27.0076 14.1776 27.0842 14.1209 27.1732 14.099L28.3255 13.7912C28.3719 13.7702 28.4226 13.7597 28.4735 13.7608L28.4746 13.7607ZM27.6675 19.5144V34.0247H30.6036V19.5144H27.6675ZM31.2853 19.5169V23.8934C32.7695 23.8959 33.9505 25.1997 33.9505 26.766C33.9505 28.3323 32.7695 29.6361 31.2853 29.6379V34.0105L31.8398 34.0154V32.7004C31.8398 32.5399 31.9518 32.4013 32.1085 32.3671C32.7755 32.2234 33.4117 31.956 33.9853 31.5777C34.1215 31.4879 34.3023 31.5073 34.4166 31.6241L35.315 32.5431L36.5867 31.2421L35.6749 30.3091H35.6746C35.5637 30.1959 35.5454 30.0214 35.6302 29.8877C36.0028 29.3013 36.2677 28.6497 36.4112 27.9653H36.4115C36.4445 27.8075 36.5838 27.6946 36.7452 27.6946H38.0208V25.847H36.7405C36.5789 25.847 36.4394 25.7334 36.4068 25.5749C36.2657 24.8899 36.0032 24.2377 35.6329 23.6499C35.5487 23.5164 35.5673 23.3425 35.6778 23.2296L36.5864 22.2997L35.3148 20.9993L34.4135 21.9211C34.299 22.0381 34.1175 22.0571 33.9813 21.9667C33.4092 21.5861 32.7744 21.3164 32.1077 21.17C31.9512 21.1357 31.8398 20.9968 31.8398 20.8368V19.5218L31.2853 19.5169ZM32.1217 22.0191V22.0189C32.1559 22.0195 32.1898 22.0253 32.2221 22.036C32.5288 22.1323 32.8208 22.2586 33.0963 22.4115H33.0965C33.1755 22.4552 33.234 22.5287 33.259 22.6157C33.284 22.7026 33.2733 22.7959 33.2295 22.8751C33.1856 22.9541 33.1121 23.0126 33.0251 23.0376C32.9382 23.0624 32.8449 23.0519 32.7657 23.0079C32.53 22.8771 32.28 22.7691 32.0179 22.6869C31.8541 22.6387 31.7512 22.4765 31.7773 22.3075C31.8034 22.1387 31.9507 22.0153 32.1215 22.0189L32.1217 22.0191ZM24.0491 23.1314V34.0245H26.9858V23.1314H24.0491ZM34.2543 23.4856L34.2541 23.4854C34.3583 23.4865 34.4561 23.5352 34.5199 23.6173C34.7152 23.8613 34.8878 24.1247 35.0346 24.4035C35.1224 24.57 35.0583 24.7762 34.8918 24.864C34.725 24.9517 34.519 24.8876 34.4313 24.7209C34.3045 24.4803 34.1558 24.2533 33.9875 24.043C33.9032 23.9408 33.886 23.7988 33.9431 23.6794C34.0003 23.5597 34.1217 23.4841 34.2541 23.4854L34.2543 23.4856ZM31.2851 24.5751V28.9557C32.3686 28.9532 33.2683 27.9934 33.2683 26.7657C33.2683 25.5381 32.3686 24.5769 31.2851 24.5751ZM35.2411 25.9226C35.4201 25.9197 35.5708 26.0559 35.5862 26.2342C35.6192 26.5608 35.621 26.8954 35.5886 27.2347C35.5826 27.3267 35.5397 27.4124 35.4694 27.4722C35.3993 27.5318 35.3078 27.5606 35.2161 27.5519C35.1243 27.5432 35.04 27.4976 34.9824 27.4255C34.9248 27.3537 34.8987 27.2613 34.9103 27.17C34.9384 26.8753 34.9368 26.5854 34.9078 26.3028V26.3025C34.8969 26.207 34.9268 26.1112 34.9902 26.0389C35.0536 25.9664 35.1449 25.9242 35.2411 25.9226L35.2411 25.9226ZM20.4308 26.7483V34.0243H23.3674V26.7483H20.4308ZM34.7205 28.6097H34.7207C34.8428 28.6063 34.9573 28.6684 35.0212 28.7726C35.085 28.8766 35.0881 29.007 35.0294 29.1141C34.8803 29.3972 34.7051 29.663 34.508 29.9088C34.4524 29.9822 34.3696 30.03 34.2781 30.0411C34.1868 30.0525 34.0948 30.0264 34.023 29.9686C33.9513 29.911 33.9058 29.8268 33.8971 29.7351C33.8884 29.6436 33.9172 29.5523 33.9768 29.482C34.1468 29.2702 34.2973 29.0405 34.4261 28.796C34.4826 28.6849 34.5953 28.6137 34.7201 28.6099H34.7205H34.7207L34.7205 28.6097ZM32.9149 30.4757L32.9151 30.4759C32.9229 30.4757 32.931 30.4757 32.9388 30.4759C33.0919 30.4826 33.2216 30.5905 33.2562 30.7398C33.2906 30.8889 33.2214 31.0429 33.0868 31.1161C32.8147 31.269 32.5272 31.396 32.2279 31.4936V31.4934C32.1417 31.5217 32.048 31.5143 31.9672 31.4735C31.8863 31.4324 31.8252 31.361 31.7973 31.2748C31.7692 31.1887 31.7767 31.0949 31.8178 31.0141C31.8591 30.9335 31.9308 30.8724 32.0169 30.8447C32.273 30.7614 32.5192 30.653 32.7526 30.5217C32.8022 30.4929 32.858 30.4773 32.9151 30.4757L32.9149 30.4757Z" fill="#FDCC1C"/>
</svg>
