<svg width="13" height="12" viewBox="0 0 13 12" fill="none" xmlns="http://www.w3.org/2000/svg">
<path d="M10.6157 0.555524L6.57597 4.59524L2.53625 0.555523C2.14989 0.169165 1.5176 0.169165 1.13124 0.555523C0.744887 0.941881 0.744887 1.57417 1.13124 1.96053L5.17096 6.00025L1.13125 10.04C0.744888 10.4263 0.744889 11.0586 1.13125 11.445C1.5176 11.8313 2.14989 11.8313 2.53625 11.445L6.57597 7.40525L10.6157 11.445C11.002 11.8313 11.6343 11.8313 12.0207 11.445C12.407 11.0586 12.407 10.4263 12.0207 10.04L7.98097 6.00025L12.0207 1.96053C12.407 1.57417 12.407 0.941883 12.0207 0.555525C11.6343 0.169167 11.002 0.169166 10.6157 0.555524Z" fill="#272525"/>
</svg>
