<svg width="24" height="24" viewBox="0 0 24 24" fill="none" xmlns="http://www.w3.org/2000/svg">
<path d="M15.9999 4.00015H15.3999C15.2408 4.00015 15.0883 4.06336 14.9758 4.17599L14.1999 4.9517L13.4241 4.17599C13.3116 4.06336 13.159 4.00015 12.9999 4.00015C12.8408 4.00015 12.6881 4.06336 12.5757 4.17599L11.7999 4.9517L11.0241 4.17599C10.9124 4.06403 10.7611 4.00082 10.6029 4.00001C10.4447 3.99908 10.2927 4.06082 10.1798 4.17158L9.39005 4.94581L8.70527 4.22808C8.60108 4.11879 8.45938 4.0529 8.30873 4.04353L7.63749 4.00134C7.47209 3.99022 7.30963 4.04875 7.18924 4.16272C7.06857 4.27616 7 4.43446 7 4.60013V20.2C7 20.3591 7.06322 20.5118 7.17571 20.6243C7.28821 20.7368 7.44089 20.8 7.6 20.8H15.9999C16.159 20.8 16.3117 20.7368 16.4242 20.6243C16.5367 20.5118 16.5999 20.3591 16.5999 20.2V4.60013C16.5999 4.44103 16.5367 4.28835 16.4242 4.17585C16.3117 4.06335 16.159 4.00014 15.9999 4.00014L15.9999 4.00015ZM11.7999 12.4001C12.585 12.3983 13.3209 12.7815 13.7699 13.4256C14.2187 14.0696 14.3234 14.8927 14.0502 15.6287C13.777 16.3646 13.1604 16.9199 12.3999 17.1149V17.8C12.3999 18.0145 12.2856 18.2125 12.0999 18.3197C11.9143 18.4268 11.6856 18.4268 11.4999 18.3197C11.3143 18.2125 11.1999 18.0144 11.1999 17.8V17.1149C10.6861 16.9826 10.2306 16.6836 9.90488 16.2647C9.57917 15.8458 9.40157 15.3307 9.39996 14.8001C9.39996 14.5856 9.51433 14.3876 9.69995 14.2804C9.88558 14.1733 10.1143 14.1733 10.2999 14.2804C10.4856 14.3876 10.5999 14.5856 10.5999 14.8001C10.5999 15.1183 10.7264 15.4235 10.9514 15.6486C11.1765 15.8736 11.4817 16 11.7999 16C12.1181 16 12.4234 15.8736 12.6485 15.6486C12.8735 15.4235 12.9999 15.1183 12.9999 14.8001C12.9999 14.4819 12.8735 14.1766 12.6485 13.9515C12.4234 13.7265 12.1181 13.6001 11.7999 13.6001C11.0149 13.6018 10.2789 13.2186 9.83 12.5746C9.3812 11.9305 9.27646 11.1074 9.54969 10.3715C9.8229 9.63554 10.4395 9.08029 11.1999 8.88527V8.20011C11.1999 7.9857 11.3143 7.78763 11.4999 7.68048C11.6856 7.57334 11.9143 7.57334 12.0999 7.68048C12.2856 7.78763 12.3999 7.9857 12.3999 8.20011V8.88527C12.9138 9.01759 13.3693 9.31652 13.695 9.73545C14.0207 10.1544 14.1983 10.6695 14.1999 11.2001C14.1999 11.4145 14.0856 11.6126 13.8999 11.7197C13.7143 11.8269 13.4856 11.8269 13.2999 11.7197C13.1143 11.6126 12.9999 11.4145 12.9999 11.2001C12.9999 10.8819 12.8735 10.5766 12.6485 10.3515C12.4234 10.1265 12.1181 10.0001 11.7999 10.0001C11.4817 10.0001 11.1765 10.1265 10.9514 10.3515C10.7264 10.5767 10.6 10.8819 10.6 11.2001C10.6 11.5183 10.7264 11.8235 10.9514 12.0487C11.1765 12.2737 11.4817 12.4001 11.7999 12.4001Z" fill="url(#paint0_linear_800_1226)"/>
<defs>
<linearGradient id="paint0_linear_800_1226" x1="7" y1="4" x2="21.4738" y2="12.2707" gradientUnits="userSpaceOnUse">
<stop stop-color="#14ADD6"/>
<stop offset="1" stop-color="#384295"/>
</linearGradient>
</defs>
</svg>
